<?xml version="1.0" encoding="UTF-8" standalone="no"?>
<!DOCTYPE svg PUBLIC "-//W3C//DTD SVG 1.1//EN"
 "http://www.w3.org/Graphics/SVG/1.1/DTD/svg11.dtd">
<!-- Generated by graphviz version 2.42.4 (0)
 -->
<!-- Title: Roadmap Pages: 1 -->
<svg width="1691pt" height="211pt"
 viewBox="0.00 0.00 1691.00 210.50" xmlns="http://www.w3.org/2000/svg" xmlns:xlink="http://www.w3.org/1999/xlink">
<g id="graph0" class="graph" transform="scale(1 1) rotate(0) translate(18 192.5)">
<title>Roadmap</title>
<polygon fill="#f8f5ee" stroke="transparent" points="-18,18 -18,-192.5 1673,-192.5 1673,18 -18,18"/>
<text text-anchor="middle" x="827.5" y="-152.9" font-family="DejaVu Sans" font-size="22.00">CHATEAU CHANTILLY — SAFE CLEANUP ROADMAP</text>
<!-- p0 -->
<g id="node1" class="node">
<title>p0</title>
<path fill="#e9edf2" stroke="#566270" d="M212.5,-137C212.5,-137 74.5,-137 74.5,-137 68.5,-137 62.5,-131 62.5,-125 62.5,-125 62.5,-102 62.5,-102 62.5,-96 68.5,-90 74.5,-90 74.5,-90 212.5,-90 212.5,-90 218.5,-90 224.5,-96 224.5,-102 224.5,-102 224.5,-125 224.5,-125 224.5,-131 218.5,-137 212.5,-137"/>
<text text-anchor="middle" x="143.5" y="-122" font-family="DejaVu Sans" font-size="10.00">0. BASELINE</text>
<text text-anchor="middle" x="143.5" y="-111" font-family="DejaVu Sans" font-size="10.00">inventory • GUID refs • tests</text>
<text text-anchor="middle" x="143.5" y="-100" font-family="DejaVu Sans" font-size="10.00">recovery commit</text>
</g>
<!-- p1 -->
<g id="node2" class="node">
<title>p1</title>
<path fill="#ddebf7" stroke="#356a9a" stroke-width="1.8" d="M454,-142.5C454,-142.5 328,-142.5 328,-142.5 322,-142.5 316,-136.5 316,-130.5 316,-130.5 316,-96.5 316,-96.5 316,-90.5 322,-84.5 328,-84.5 328,-84.5 454,-84.5 454,-84.5 460,-84.5 466,-90.5 466,-96.5 466,-96.5 466,-130.5 466,-130.5 466,-136.5 460,-142.5 454,-142.5"/>
<text text-anchor="middle" x="391" y="-127.5" font-family="DejaVu Sans" font-size="10.00">1. FOUNDATION</text>
<text text-anchor="middle" x="391" y="-116.5" font-family="DejaVu Sans" font-size="10.00">GameRoot • base families</text>
<text text-anchor="middle" x="391" y="-105.5" font-family="DejaVu Sans" font-size="10.00">validation • guard</text>
<text text-anchor="middle" x="391" y="-94.5" font-family="DejaVu Sans" font-size="10.00">DONE IN PATCH</text>
</g>
<!-- p0&#45;&gt;p1 -->
<g id="edge1" class="edge">
<title>p0&#45;&gt;p1</title>
<path fill="none" stroke="#566270" stroke-width="1.4" d="M224.54,-113.5C224.54,-113.5 308.15,-113.5 308.15,-113.5"/>
<polygon fill="#566270" stroke="#566270" stroke-width="1.4" points="308.15,-116.13 315.65,-113.5 308.15,-110.88 308.15,-116.13"/>
</g>
<!-- p2 -->
<g id="node3" class="node">
<title>p2</title>
<path fill="#e6f3ea" stroke="#3c7c5b" d="M630,-137C630,-137 507,-137 507,-137 501,-137 495,-131 495,-125 495,-125 495,-102 495,-102 495,-96 501,-90 507,-90 507,-90 630,-90 630,-90 636,-90 642,-96 642,-102 642,-102 642,-125 642,-125 642,-131 636,-137 630,-137"/>
<text text-anchor="middle" x="568.5" y="-122" font-family="DejaVu Sans" font-size="10.00">2. UNITY INSTALL</text>
<text text-anchor="middle" x="568.5" y="-111" font-family="DejaVu Sans" font-size="10.00">serialize root + services</text>
<text text-anchor="middle" x="568.5" y="-100" font-family="DejaVu Sans" font-size="10.00">compile + EditMode tests</text>
</g>
<!-- p1&#45;&gt;p2 -->
<g id="edge2" class="edge">
<title>p1&#45;&gt;p2</title>
<path fill="none" stroke="#566270" stroke-width="1.4" d="M466.02,-113.5C466.02,-113.5 487.38,-113.5 487.38,-113.5"/>
<polygon fill="#566270" stroke="#566270" stroke-width="1.4" points="487.38,-116.13 494.88,-113.5 487.38,-110.88 487.38,-116.13"/>
</g>
<!-- p3 -->
<g id="node4" class="node">
<title>p3</title>
<path fill="#fff0e4" stroke="#b66722" d="M785,-137C785,-137 683,-137 683,-137 677,-137 671,-131 671,-125 671,-125 671,-102 671,-102 671,-96 677,-90 683,-90 683,-90 785,-90 785,-90 791,-90 797,-96 797,-102 797,-102 797,-125 797,-125 797,-131 791,-137 785,-137"/>
<text text-anchor="middle" x="734" y="-122" font-family="DejaVu Sans" font-size="10.00">3. REMOVE REPAIR</text>
<text text-anchor="middle" x="734" y="-111" font-family="DejaVu Sans" font-size="10.00">retire bootstraps only</text>
<text text-anchor="middle" x="734" y="-100" font-family="DejaVu Sans" font-size="10.00">after scene parity</text>
</g>
<!-- p2&#45;&gt;p3 -->
<g id="edge3" class="edge">
<title>p2&#45;&gt;p3</title>
<path fill="none" stroke="#566270" stroke-width="1.4" d="M642.05,-113.5C642.05,-113.5 663.28,-113.5 663.28,-113.5"/>
<polygon fill="#566270" stroke="#566270" stroke-width="1.4" points="663.28,-116.13 670.78,-113.5 663.28,-110.88 663.28,-116.13"/>
</g>
<!-- p4 -->
<g id="node5" class="node">
<title>p4</title>
<path fill="#e8f7f7" stroke="#167c80" d="M965,-137C965,-137 838,-137 838,-137 832,-137 826,-131 826,-125 826,-125 826,-102 826,-102 826,-96 832,-90 838,-90 838,-90 965,-90 965,-90 971,-90 977,-96 977,-102 977,-102 977,-125 977,-125 977,-131 971,-137 965,-137"/>
<text text-anchor="middle" x="901.5" y="-122" font-family="DejaVu Sans" font-size="10.00">4. NAVIGATION SLICE</text>
<text text-anchor="middle" x="901.5" y="-111" font-family="DejaVu Sans" font-size="10.00">one passage round trip</text>
<text text-anchor="middle" x="901.5" y="-100" font-family="DejaVu Sans" font-size="10.00">then canonical route graph</text>
</g>
<!-- p3&#45;&gt;p4 -->
<g id="edge4" class="edge">
<title>p3&#45;&gt;p4</title>
<path fill="none" stroke="#566270" stroke-width="1.4" d="M797.32,-113.5C797.32,-113.5 818.48,-113.5 818.48,-113.5"/>
<polygon fill="#566270" stroke="#566270" stroke-width="1.4" points="818.48,-116.13 825.98,-113.5 818.48,-110.88 818.48,-116.13"/>
</g>
<!-- p5 -->
<g id="node6" class="node">
<title>p5</title>
<path fill="#fff7d8" stroke="#a98216" d="M1144,-137C1144,-137 1018,-137 1018,-137 1012,-137 1006,-131 1006,-125 1006,-125 1006,-102 1006,-102 1006,-96 1012,-90 1018,-90 1018,-90 1144,-90 1144,-90 1150,-90 1156,-96 1156,-102 1156,-102 1156,-125 1156,-125 1156,-131 1150,-137 1144,-137"/>
<text text-anchor="middle" x="1081" y="-122" font-family="DejaVu Sans" font-size="10.00">5. ACTORS</text>
<text text-anchor="middle" x="1081" y="-111" font-family="DejaVu Sans" font-size="10.00">one motor • one presenter</text>
<text text-anchor="middle" x="1081" y="-100" font-family="DejaVu Sans" font-size="10.00">dedicated guest prefab</text>
</g>
<!-- p4&#45;&gt;p5 -->
<g id="edge5" class="edge">
<title>p4&#45;&gt;p5</title>
<path fill="none" stroke="#566270" stroke-width="1.4" d="M977.1,-113.5C977.1,-113.5 998.27,-113.5 998.27,-113.5"/>
<polygon fill="#566270" stroke="#566270" stroke-width="1.4" points="998.27,-116.13 1005.77,-113.5 998.27,-110.88 998.27,-116.13"/>
</g>
<!-- gate -->
<g id="node10" class="node">
<title>gate</title>
<polygon fill="#fff3c4" stroke="#b1831b" points="281,-47 0,-47 0,0 287,0 287,-41 281,-47"/>
<polyline fill="none" stroke="#b1831b" points="281,-47 281,-41 "/>
<polyline fill="none" stroke="#b1831b" points="287,-41 281,-41 "/>
<text text-anchor="middle" x="143.5" y="-32" font-family="DejaVu Sans" font-size="10.00">GATE AFTER EVERY PHASE</text>
<text text-anchor="middle" x="143.5" y="-21" font-family="DejaVu Sans" font-size="10.00">static guard • compile • EditMode • PlayMode</text>
<text text-anchor="middle" x="143.5" y="-10" font-family="DejaVu Sans" font-size="10.00">missing&#45;script scan • manual trace • separate commit</text>
</g>
<!-- p4&#45;&gt;gate -->
<g id="edge9" class="edge">
<title>p4&#45;&gt;gate</title>
<path fill="none" stroke="#566270" stroke-width="1.4" stroke-dasharray="5,2" d="M902,-89.73C902,-65.47 902,-31.33 902,-31.33 902,-31.33 294.56,-31.33 294.56,-31.33"/>
<polygon fill="#566270" stroke="#566270" stroke-width="1.4" points="294.56,-28.71 287.06,-31.33 294.56,-33.96 294.56,-28.71"/>
</g>
<!-- p6 -->
<g id="node7" class="node">
<title>p6</title>
<path fill="#f3eff8" stroke="#6b4e9b" d="M1307,-137C1307,-137 1197,-137 1197,-137 1191,-137 1185,-131 1185,-125 1185,-125 1185,-102 1185,-102 1185,-96 1191,-90 1197,-90 1197,-90 1307,-90 1307,-90 1313,-90 1319,-96 1319,-102 1319,-102 1319,-125 1319,-125 1319,-131 1313,-137 1307,-137"/>
<text text-anchor="middle" x="1252" y="-122" font-family="DejaVu Sans" font-size="10.00">6. STORY BEATS</text>
<text text-anchor="middle" x="1252" y="-111" font-family="DejaVu Sans" font-size="10.00">one flow owner</text>
<text text-anchor="middle" x="1252" y="-100" font-family="DejaVu Sans" font-size="10.00">thin chapter controllers</text>
</g>
<!-- p5&#45;&gt;p6 -->
<g id="edge6" class="edge">
<title>p5&#45;&gt;p6</title>
<path fill="none" stroke="#566270" stroke-width="1.4" d="M1156,-113.5C1156,-113.5 1177.35,-113.5 1177.35,-113.5"/>
<polygon fill="#566270" stroke="#566270" stroke-width="1.4" points="1177.35,-116.13 1184.85,-113.5 1177.35,-110.88 1177.35,-116.13"/>
</g>
<!-- p7 -->
<g id="node8" class="node">
<title>p7</title>
<path fill="#faedf5" stroke="#a44578" d="M1460,-137C1460,-137 1360,-137 1360,-137 1354,-137 1348,-131 1348,-125 1348,-125 1348,-102 1348,-102 1348,-96 1354,-90 1360,-90 1360,-90 1460,-90 1460,-90 1466,-90 1472,-96 1472,-102 1472,-102 1472,-125 1472,-125 1472,-131 1466,-137 1460,-137"/>
<text text-anchor="middle" x="1410" y="-122" font-family="DejaVu Sans" font-size="10.00">7. PRESENTATION</text>
<text text-anchor="middle" x="1410" y="-111" font-family="DejaVu Sans" font-size="10.00">UI • dialogue • audio</text>
<text text-anchor="middle" x="1410" y="-100" font-family="DejaVu Sans" font-size="10.00">camera • lighting</text>
</g>
<!-- p6&#45;&gt;p7 -->
<g id="edge7" class="edge">
<title>p6&#45;&gt;p7</title>
<path fill="none" stroke="#566270" stroke-width="1.4" d="M1319.01,-113.5C1319.01,-113.5 1340.41,-113.5 1340.41,-113.5"/>
<polygon fill="#566270" stroke="#566270" stroke-width="1.4" points="1340.41,-116.13 1347.91,-113.5 1340.41,-110.88 1340.41,-116.13"/>
</g>
<!-- p8 -->
<g id="node9" class="node">
<title>p8</title>
<path fill="#f8e7e7" stroke="#a33a3a" d="M1643,-137C1643,-137 1513,-137 1513,-137 1507,-137 1501,-131 1501,-125 1501,-125 1501,-102 1501,-102 1501,-96 1507,-90 1513,-90 1513,-90 1643,-90 1643,-90 1649,-90 1655,-96 1655,-102 1655,-102 1655,-125 1655,-125 1655,-131 1649,-137 1643,-137"/>
<text text-anchor="middle" x="1578" y="-122" font-family="DejaVu Sans" font-size="10.00">8. PRUNE + BOUNDARIES</text>
<text text-anchor="middle" x="1578" y="-111" font-family="DejaVu Sans" font-size="10.00">proof per deletion</text>
<text text-anchor="middle" x="1578" y="-100" font-family="DejaVu Sans" font-size="10.00">asmdefs • CI • certification</text>
</g>
<!-- p7&#45;&gt;p8 -->
<g id="edge8" class="edge">
<title>p7&#45;&gt;p8</title>
<path fill="none" stroke="#566270" stroke-width="1.4" d="M1472.08,-113.5C1472.08,-113.5 1493.28,-113.5 1493.28,-113.5"/>
<polygon fill="#566270" stroke="#566270" stroke-width="1.4" points="1493.28,-116.13 1500.78,-113.5 1493.28,-110.88 1493.28,-116.13"/>
</g>
<!-- p8&#45;&gt;gate -->
<g id="edge10" class="edge">
<title>p8&#45;&gt;gate</title>
<path fill="none" stroke="#566270" stroke-width="1.4" stroke-dasharray="5,2" d="M1578,-89.82C1578,-60.86 1578,-15.67 1578,-15.67 1578,-15.67 294.78,-15.67 294.78,-15.67"/>
<polygon fill="#566270" stroke="#566270" stroke-width="1.4" points="294.78,-13.04 287.28,-15.67 294.78,-18.29 294.78,-13.04"/>
</g>
</g>
</svg>
