<?xml version="1.0" encoding="UTF-8" standalone="no"?>
<!DOCTYPE svg PUBLIC "-//W3C//DTD SVG 1.1//EN"
 "http://www.w3.org/Graphics/SVG/1.1/DTD/svg11.dtd">
<!-- Generated by graphviz version 2.42.4 (0)
 -->
<!-- Title: ChantillyTarget Pages: 1 -->
<svg width="2057pt" height="973pt"
 viewBox="0.00 0.00 2057.20 973.20" xmlns="http://www.w3.org/2000/svg" xmlns:xlink="http://www.w3.org/1999/xlink">
<g id="graph0" class="graph" transform="scale(1 1) rotate(0) translate(21.6 951.6)">
<title>ChantillyTarget</title>
<polygon fill="#f8f5ee" stroke="transparent" points="-21.6,21.6 -21.6,-951.6 2035.6,-951.6 2035.6,21.6 -21.6,21.6"/>
<text text-anchor="middle" x="1007" y="-908.4" font-family="DejaVu Sans" font-size="22.00">CHATEAU CHANTILLY — REQUIREMENTS&#45;FIRST TARGET ARCHITECTURE</text>
<g id="clust1" class="cluster">
<title>cluster_flow</title>
<path fill="#f3eff8" stroke="#8367a8" d="M772,-416C772,-416 1200,-416 1200,-416 1206,-416 1212,-422 1212,-428 1212,-428 1212,-694 1212,-694 1212,-700 1206,-706 1200,-706 1200,-706 772,-706 772,-706 766,-706 760,-700 760,-694 760,-694 760,-428 760,-428 760,-422 766,-416 772,-416"/>
<text text-anchor="middle" x="986" y="-684.4" font-family="DejaVu Sans" font-size="22.00">GAME LOOP / STORY</text>
</g>
<g id="clust2" class="cluster">
<title>cluster_clock</title>
<path fill="#fff7d8" stroke="#a98216" d="M1836,-620C1836,-620 1994,-620 1994,-620 2000,-620 2006,-626 2006,-632 2006,-632 2006,-810 2006,-810 2006,-816 2000,-822 1994,-822 1994,-822 1836,-822 1836,-822 1830,-822 1824,-816 1824,-810 1824,-810 1824,-632 1824,-632 1824,-626 1830,-620 1836,-620"/>
<text text-anchor="middle" x="1915" y="-800.4" font-family="DejaVu Sans" font-size="22.00">TIME</text>
</g>
<g id="clust3" class="cluster">
<title>cluster_world</title>
<path fill="#ebf5ee" stroke="#3c7c5b" d="M1268,-96C1268,-96 1693,-96 1693,-96 1699,-96 1705,-102 1705,-108 1705,-108 1705,-490 1705,-490 1705,-496 1699,-502 1693,-502 1693,-502 1268,-502 1268,-502 1262,-502 1256,-496 1256,-490 1256,-490 1256,-108 1256,-108 1256,-102 1262,-96 1268,-96"/>
<text text-anchor="middle" x="1480.5" y="-480.4" font-family="DejaVu Sans" font-size="22.00">HOUSE / ROOMS / NAVIGATION</text>
</g>
<g id="clust4" class="cluster">
<title>cluster_actors</title>
<path fill="#fff0e4" stroke="#b66722" d="M20,-96C20,-96 390,-96 390,-96 396,-96 402,-102 402,-108 402,-108 402,-374 402,-374 402,-380 396,-386 390,-386 390,-386 20,-386 20,-386 14,-386 8,-380 8,-374 8,-374 8,-108 8,-108 8,-102 14,-96 20,-96"/>
<text text-anchor="middle" x="205" y="-364.4" font-family="DejaVu Sans" font-size="22.00">PLAYER / GUESTS</text>
</g>
<g id="clust5" class="cluster">
<title>cluster_interaction</title>
<path fill="#e8f7f7" stroke="#167c80" d="M1456,-620C1456,-620 1671,-620 1671,-620 1677,-620 1683,-626 1683,-632 1683,-632 1683,-810 1683,-810 1683,-816 1677,-822 1671,-822 1671,-822 1456,-822 1456,-822 1450,-822 1444,-816 1444,-810 1444,-810 1444,-632 1444,-632 1444,-626 1450,-620 1456,-620"/>
<text text-anchor="middle" x="1563.5" y="-800.4" font-family="DejaVu Sans" font-size="22.00">PLAYER COMMANDS</text>
</g>
<g id="clust6" class="cluster">
<title>cluster_present</title>
<path fill="#faedf5" stroke="#a44578" d="M646,-8C646,-8 1236,-8 1236,-8 1242,-8 1248,-14 1248,-20 1248,-20 1248,-170 1248,-170 1248,-176 1242,-182 1236,-182 1236,-182 646,-182 646,-182 640,-182 634,-176 634,-170 634,-170 634,-20 634,-20 634,-14 640,-8 646,-8"/>
<text text-anchor="middle" x="941" y="-160.4" font-family="DejaVu Sans" font-size="22.00">PRESENTATION SERVICES</text>
</g>
<!-- root -->
<g id="node1" class="node">
<title>root</title>
<path fill="#26364d" stroke="#26364d" stroke-width="1.8" d="M1236,-898C1236,-898 1012,-898 1012,-898 1006,-898 1000,-892 1000,-886 1000,-886 1000,-872 1000,-872 1000,-866 1006,-860 1012,-860 1012,-860 1236,-860 1236,-860 1242,-860 1248,-866 1248,-872 1248,-872 1248,-886 1248,-886 1248,-892 1242,-898 1236,-898"/>
<text text-anchor="middle" x="1124" y="-882.2" font-family="DejaVu Sans" font-size="11.00" fill="white">GameRoot</text>
<text text-anchor="middle" x="1124" y="-870.2" font-family="DejaVu Sans" font-size="11.00" fill="white">composition + deterministic initialization</text>
</g>
<!-- context -->
<g id="node2" class="node">
<title>context</title>
<path fill="#e8edf4" stroke="#566270" d="M274,-782C274,-782 152,-782 152,-782 146,-782 140,-776 140,-770 140,-770 140,-756 140,-756 140,-750 146,-744 152,-744 152,-744 274,-744 274,-744 280,-744 286,-750 286,-756 286,-756 286,-770 286,-770 286,-776 280,-782 274,-782"/>
<text text-anchor="middle" x="213" y="-766.2" font-family="DejaVu Sans" font-size="11.00">GameContext</text>
<text text-anchor="middle" x="213" y="-754.2" font-family="DejaVu Sans" font-size="11.00">typed runtime context</text>
</g>
<!-- root&#45;&gt;context -->
<g id="edge1" class="edge">
<title>root&#45;&gt;context</title>
<path fill="none" stroke="#566270" d="M1021.83,-859.84C1021.83,-828.32 1021.83,-769 1021.83,-769 1021.83,-769 293.21,-769 293.21,-769"/>
<polygon fill="#566270" stroke="#566270" points="293.21,-766.55 286.21,-769 293.21,-771.45 293.21,-766.55"/>
<text text-anchor="middle" x="230" y="-832.8" font-family="DejaVu Sans" font-size="9.00">creates</text>
</g>
<!-- db -->
<g id="node3" class="node">
<title>db</title>
<path fill="#e8edf4" stroke="#566270" d="M1170.5,-782C1170.5,-782 1077.5,-782 1077.5,-782 1071.5,-782 1065.5,-776 1065.5,-770 1065.5,-770 1065.5,-756 1065.5,-756 1065.5,-750 1071.5,-744 1077.5,-744 1077.5,-744 1170.5,-744 1170.5,-744 1176.5,-744 1182.5,-750 1182.5,-756 1182.5,-756 1182.5,-770 1182.5,-770 1182.5,-776 1176.5,-782 1170.5,-782"/>
<text text-anchor="middle" x="1124" y="-766.2" font-family="DejaVu Sans" font-size="11.00">GameDatabase</text>
<text text-anchor="middle" x="1124" y="-754.2" font-family="DejaVu Sans" font-size="11.00">stable definitions</text>
</g>
<!-- root&#45;&gt;db -->
<g id="edge2" class="edge">
<title>root&#45;&gt;db</title>
<path fill="none" stroke="#566270" d="M1124,-859.84C1124,-859.84 1124,-789.18 1124,-789.18"/>
<polygon fill="#566270" stroke="#566270" points="1126.45,-789.18 1124,-782.18 1121.55,-789.18 1126.45,-789.18"/>
<text text-anchor="middle" x="1136" y="-832.8" font-family="DejaVu Sans" font-size="9.00">owns</text>
</g>
<!-- flow -->
<g id="node4" class="node">
<title>flow</title>
<path fill="#e6dcf2" stroke="#6b4e9b" stroke-width="1.6" d="M1060.5,-666C1060.5,-666 935.5,-666 935.5,-666 929.5,-666 923.5,-660 923.5,-654 923.5,-654 923.5,-640 923.5,-640 923.5,-634 929.5,-628 935.5,-628 935.5,-628 1060.5,-628 1060.5,-628 1066.5,-628 1072.5,-634 1072.5,-640 1072.5,-640 1072.5,-654 1072.5,-654 1072.5,-660 1066.5,-666 1060.5,-666"/>
<text text-anchor="middle" x="998" y="-650.2" font-family="DejaVu Sans" font-size="11.00">GameFlowService</text>
<text text-anchor="middle" x="998" y="-638.2" font-family="DejaVu Sans" font-size="11.00">current chapter + beat</text>
</g>
<!-- root&#45;&gt;flow -->
<g id="edge15" class="edge">
<title>root&#45;&gt;flow</title>
<path fill="none" stroke="#566270" d="M1043.67,-859.62C1043.67,-859.62 1043.67,-673.16 1043.67,-673.16"/>
<polygon fill="#566270" stroke="#566270" points="1046.12,-673.16 1043.67,-666.16 1041.22,-673.16 1046.12,-673.16"/>
<text text-anchor="middle" x="1018.5" y="-760.8" font-family="DejaVu Sans" font-size="9.00">initializes</text>
</g>
<!-- clock -->
<g id="node8" class="node">
<title>clock</title>
<path fill="white" stroke="#566270" d="M1955.5,-782C1955.5,-782 1854.5,-782 1854.5,-782 1848.5,-782 1842.5,-776 1842.5,-770 1842.5,-770 1842.5,-756 1842.5,-756 1842.5,-750 1848.5,-744 1854.5,-744 1854.5,-744 1955.5,-744 1955.5,-744 1961.5,-744 1967.5,-750 1967.5,-756 1967.5,-756 1967.5,-770 1967.5,-770 1967.5,-776 1961.5,-782 1955.5,-782"/>
<text text-anchor="middle" x="1905" y="-766.2" font-family="DejaVu Sans" font-size="11.00">ClockService</text>
<text text-anchor="middle" x="1905" y="-754.2" font-family="DejaVu Sans" font-size="11.00">current game time</text>
</g>
<!-- root&#45;&gt;clock -->
<g id="edge16" class="edge">
<title>root&#45;&gt;clock</title>
<path fill="none" stroke="#566270" d="M1248.18,-879C1468.54,-879 1905,-879 1905,-879 1905,-879 1905,-789.16 1905,-789.16"/>
<polygon fill="#566270" stroke="#566270" points="1907.45,-789.16 1905,-782.16 1902.55,-789.16 1907.45,-789.16"/>
</g>
<!-- world -->
<g id="node10" class="node">
<title>world</title>
<path fill="white" stroke="#566270" d="M1478.5,-462C1478.5,-462 1323.5,-462 1323.5,-462 1317.5,-462 1311.5,-456 1311.5,-450 1311.5,-450 1311.5,-436 1311.5,-436 1311.5,-430 1317.5,-424 1323.5,-424 1323.5,-424 1478.5,-424 1478.5,-424 1484.5,-424 1490.5,-430 1490.5,-436 1490.5,-436 1490.5,-450 1490.5,-450 1490.5,-456 1484.5,-462 1478.5,-462"/>
<text text-anchor="middle" x="1401" y="-446.2" font-family="DejaVu Sans" font-size="11.00">WorldService</text>
<text text-anchor="middle" x="1401" y="-434.2" font-family="DejaVu Sans" font-size="11.00">House + current world state</text>
</g>
<!-- root&#45;&gt;world -->
<g id="edge17" class="edge">
<title>root&#45;&gt;world</title>
<path fill="none" stroke="#566270" d="M1244,-859.97C1244,-776.75 1244,-449 1244,-449 1244,-449 1304.49,-449 1304.49,-449"/>
<polygon fill="#566270" stroke="#566270" points="1304.49,-451.45 1311.49,-449 1304.49,-446.55 1304.49,-451.45"/>
</g>
<!-- registry -->
<g id="node15" class="node">
<title>registry</title>
<path fill="white" stroke="#566270" d="M373,-346C373,-346 215,-346 215,-346 209,-346 203,-340 203,-334 203,-334 203,-320 203,-320 203,-314 209,-308 215,-308 215,-308 373,-308 373,-308 379,-308 385,-314 385,-320 385,-320 385,-334 385,-334 385,-340 379,-346 373,-346"/>
<text text-anchor="middle" x="294" y="-330.2" font-family="DejaVu Sans" font-size="11.00">ActorRegistry</text>
<text text-anchor="middle" x="294" y="-318.2" font-family="DejaVu Sans" font-size="11.00">identity + room membership</text>
</g>
<!-- root&#45;&gt;registry -->
<g id="edge18" class="edge">
<title>root&#45;&gt;registry</title>
<path fill="none" stroke="#566270" d="M999.6,-888C771.78,-888 310.75,-888 310.75,-888 310.75,-888 310.75,-353.31 310.75,-353.31"/>
<polygon fill="#566270" stroke="#566270" points="313.2,-353.31 310.75,-346.31 308.3,-353.31 313.2,-353.31"/>
</g>
<!-- input -->
<g id="node19" class="node">
<title>input</title>
<path fill="white" stroke="#566270" d="M1632.5,-782C1632.5,-782 1465.5,-782 1465.5,-782 1459.5,-782 1453.5,-776 1453.5,-770 1453.5,-770 1453.5,-756 1453.5,-756 1453.5,-750 1459.5,-744 1465.5,-744 1465.5,-744 1632.5,-744 1632.5,-744 1638.5,-744 1644.5,-750 1644.5,-756 1644.5,-756 1644.5,-770 1644.5,-770 1644.5,-776 1638.5,-782 1632.5,-782"/>
<text text-anchor="middle" x="1549" y="-766.2" font-family="DejaVu Sans" font-size="11.00">InputRouter</text>
<text text-anchor="middle" x="1549" y="-754.2" font-family="DejaVu Sans" font-size="11.00">cursor + modal + click routing</text>
</g>
<!-- root&#45;&gt;input -->
<g id="edge19" class="edge">
<title>root&#45;&gt;input</title>
<path fill="none" stroke="#566270" d="M1246,-859.84C1246,-828.32 1246,-769 1246,-769 1246,-769 1446.13,-769 1446.13,-769"/>
<polygon fill="#566270" stroke="#566270" points="1446.13,-771.45 1453.13,-769 1446.13,-766.55 1446.13,-771.45"/>
</g>
<!-- narrative -->
<g id="node21" class="node">
<title>narrative</title>
<path fill="white" stroke="#566270" d="M1034,-142C1034,-142 842,-142 842,-142 836,-142 830,-136 830,-130 830,-130 830,-116 830,-116 830,-110 836,-104 842,-104 842,-104 1034,-104 1034,-104 1040,-104 1046,-110 1046,-116 1046,-116 1046,-130 1046,-130 1046,-136 1040,-142 1034,-142"/>
<text text-anchor="middle" x="938" y="-126.2" font-family="DejaVu Sans" font-size="11.00">NarrativeService</text>
<text text-anchor="middle" x="938" y="-114.2" font-family="DejaVu Sans" font-size="11.00">dialogue queue + subtitles + voice</text>
</g>
<!-- root&#45;&gt;narrative -->
<g id="edge20" class="edge">
<title>root&#45;&gt;narrative</title>
<path fill="none" stroke="#566270" d="M1193.25,-859.59C1193.25,-796.77 1193.25,-603 1193.25,-603 1193.25,-603 1025,-603 1025,-603 1025,-603 1025,-149.11 1025,-149.11"/>
<polygon fill="#566270" stroke="#566270" points="1027.45,-149.11 1025,-142.11 1022.55,-149.11 1027.45,-149.11"/>
</g>
<!-- ui -->
<g id="node22" class="node">
<title>ui</title>
<path fill="white" stroke="#566270" d="M1020.5,-54C1020.5,-54 877.5,-54 877.5,-54 871.5,-54 865.5,-48 865.5,-42 865.5,-42 865.5,-28 865.5,-28 865.5,-22 871.5,-16 877.5,-16 877.5,-16 1020.5,-16 1020.5,-16 1026.5,-16 1032.5,-22 1032.5,-28 1032.5,-28 1032.5,-42 1032.5,-42 1032.5,-48 1026.5,-54 1020.5,-54"/>
<text text-anchor="middle" x="949" y="-38.2" font-family="DejaVu Sans" font-size="11.00">UIService</text>
<text text-anchor="middle" x="949" y="-26.2" font-family="DejaVu Sans" font-size="11.00">one UI root + modal stack</text>
</g>
<!-- root&#45;&gt;ui -->
<g id="edge21" class="edge">
<title>root&#45;&gt;ui</title>
<path fill="none" stroke="#566270" d="M1213,-860C1213,-783.34 1213,-501 1213,-501 1213,-501 1053.75,-501 1053.75,-501 1053.75,-501 1053.75,-35 1053.75,-35 1053.75,-35 1039.55,-35 1039.55,-35"/>
<polygon fill="#566270" stroke="#566270" points="1039.55,-32.55 1032.55,-35 1039.55,-37.45 1039.55,-32.55"/>
</g>
<!-- camera -->
<g id="node23" class="node">
<title>camera</title>
<path fill="white" stroke="#566270" d="M1228,-142C1228,-142 1084,-142 1084,-142 1078,-142 1072,-136 1072,-130 1072,-130 1072,-116 1072,-116 1072,-110 1078,-104 1084,-104 1084,-104 1228,-104 1228,-104 1234,-104 1240,-110 1240,-116 1240,-116 1240,-130 1240,-130 1240,-136 1234,-142 1228,-142"/>
<text text-anchor="middle" x="1156" y="-126.2" font-family="DejaVu Sans" font-size="11.00">CameraService</text>
<text text-anchor="middle" x="1156" y="-114.2" font-family="DejaVu Sans" font-size="11.00">room framing + projection</text>
</g>
<!-- root&#45;&gt;camera -->
<g id="edge22" class="edge">
<title>root&#45;&gt;camera</title>
<path fill="none" stroke="#566270" d="M1222,-859.93C1222,-859.93 1222,-149.01 1222,-149.01"/>
<polygon fill="#566270" stroke="#566270" points="1224.45,-149.01 1222,-142.01 1219.55,-149.01 1224.45,-149.01"/>
</g>
<!-- audio -->
<g id="node24" class="node">
<title>audio</title>
<path fill="white" stroke="#566270" d="M1222.5,-54C1222.5,-54 1073.5,-54 1073.5,-54 1067.5,-54 1061.5,-48 1061.5,-42 1061.5,-42 1061.5,-28 1061.5,-28 1061.5,-22 1067.5,-16 1073.5,-16 1073.5,-16 1222.5,-16 1222.5,-16 1228.5,-16 1234.5,-22 1234.5,-28 1234.5,-28 1234.5,-42 1234.5,-42 1234.5,-48 1228.5,-54 1222.5,-54"/>
<text text-anchor="middle" x="1148" y="-38.2" font-family="DejaVu Sans" font-size="11.00">AudioService</text>
<text text-anchor="middle" x="1148" y="-26.2" font-family="DejaVu Sans" font-size="11.00">settings + ambience + SFX</text>
</g>
<!-- root&#45;&gt;audio -->
<g id="edge23" class="edge">
<title>root&#45;&gt;audio</title>
<path fill="none" stroke="#566270" d="M1242,-859.79C1242,-734.16 1242,-35 1242,-35 1242,-35 1241.26,-35 1241.26,-35"/>
<polygon fill="#566270" stroke="#566270" points="1241.62,-32.55 1234.62,-35 1241.62,-37.45 1241.62,-32.55"/>
</g>
<!-- lighting -->
<g id="node25" class="node">
<title>lighting</title>
<path fill="white" stroke="#566270" d="M792,-142C792,-142 654,-142 654,-142 648,-142 642,-136 642,-130 642,-130 642,-116 642,-116 642,-110 648,-104 654,-104 654,-104 792,-104 792,-104 798,-104 804,-110 804,-116 804,-116 804,-130 804,-130 804,-136 798,-142 792,-142"/>
<text text-anchor="middle" x="723" y="-126.2" font-family="DejaVu Sans" font-size="11.00">LightingService</text>
<text text-anchor="middle" x="723" y="-114.2" font-family="DejaVu Sans" font-size="11.00">runtime baked&#45;light state</text>
</g>
<!-- root&#45;&gt;lighting -->
<g id="edge24" class="edge">
<title>root&#45;&gt;lighting</title>
<path fill="none" stroke="#566270" d="M999.76,-869C892.53,-869 754.75,-869 754.75,-869 754.75,-869 754.75,-149.19 754.75,-149.19"/>
<polygon fill="#566270" stroke="#566270" points="757.2,-149.19 754.75,-142.19 752.3,-149.19 757.2,-149.19"/>
</g>
<!-- save -->
<g id="node26" class="node">
<title>save</title>
<path fill="#eef1f4" stroke="#566270" d="M729.5,-578C729.5,-578 612.5,-578 612.5,-578 606.5,-578 600.5,-572 600.5,-566 600.5,-566 600.5,-552 600.5,-552 600.5,-546 606.5,-540 612.5,-540 612.5,-540 729.5,-540 729.5,-540 735.5,-540 741.5,-546 741.5,-552 741.5,-552 741.5,-566 741.5,-566 741.5,-572 735.5,-578 729.5,-578"/>
<text text-anchor="middle" x="671" y="-562.2" font-family="DejaVu Sans" font-size="11.00">SaveService</text>
<text text-anchor="middle" x="671" y="-550.2" font-family="DejaVu Sans" font-size="11.00">durable session state</text>
</g>
<!-- root&#45;&gt;save -->
<g id="edge25" class="edge">
<title>root&#45;&gt;save</title>
<path fill="none" stroke="#566270" d="M999.74,-879C858.55,-879 647.5,-879 647.5,-879 647.5,-879 647.5,-585.06 647.5,-585.06"/>
<polygon fill="#566270" stroke="#566270" points="649.95,-585.06 647.5,-578.06 645.05,-585.06 649.95,-585.06"/>
</g>
<!-- db&#45;&gt;flow -->
<g id="edge35" class="edge">
<title>db&#45;&gt;flow</title>
<path fill="none" stroke="#566270" stroke-dasharray="1,5" d="M1069,-743.84C1069,-743.84 1069,-673.18 1069,-673.18"/>
<polygon fill="#566270" stroke="#566270" points="1071.45,-673.18 1069,-666.18 1066.55,-673.18 1071.45,-673.18"/>
<text text-anchor="middle" x="1112" y="-716.8" font-family="DejaVu Sans" font-size="9.00">chapter definitions</text>
</g>
<!-- db&#45;&gt;world -->
<g id="edge36" class="edge">
<title>db&#45;&gt;world</title>
<path fill="none" stroke="#566270" stroke-dasharray="1,5" d="M1182.81,-756C1258.88,-756 1381.75,-756 1381.75,-756 1381.75,-756 1381.75,-469.11 1381.75,-469.11"/>
<polygon fill="#566270" stroke="#566270" points="1384.2,-469.11 1381.75,-462.11 1379.3,-469.11 1384.2,-469.11"/>
<text text-anchor="middle" x="1303" y="-600.8" font-family="DejaVu Sans" font-size="9.00">room/passage definitions</text>
</g>
<!-- db&#45;&gt;registry -->
<g id="edge37" class="edge">
<title>db&#45;&gt;registry</title>
<path fill="none" stroke="#566270" stroke-dasharray="1,5" d="M1065.38,-756C882.64,-756 335.5,-756 335.5,-756 335.5,-756 335.5,-353.27 335.5,-353.27"/>
<polygon fill="#566270" stroke="#566270" points="337.95,-353.27 335.5,-346.27 333.05,-353.27 337.95,-353.27"/>
<text text-anchor="middle" x="537" y="-556.8" font-family="DejaVu Sans" font-size="9.00">actor definitions</text>
</g>
<!-- chapter -->
<g id="node5" class="node">
<title>chapter</title>
<path fill="white" stroke="#566270" d="M1000,-578C1000,-578 780,-578 780,-578 774,-578 768,-572 768,-566 768,-566 768,-552 768,-552 768,-546 774,-540 780,-540 780,-540 1000,-540 1000,-540 1006,-540 1012,-546 1012,-552 1012,-552 1012,-566 1012,-566 1012,-572 1006,-578 1000,-578"/>
<text text-anchor="middle" x="890" y="-562.2" font-family="DejaVu Sans" font-size="11.00">ChapterControllerBase</text>
<text text-anchor="middle" x="890" y="-550.2" font-family="DejaVu Sans" font-size="11.00">Chapter 1 • Chapter 2 • future chapters</text>
</g>
<!-- flow&#45;&gt;chapter -->
<g id="edge3" class="edge">
<title>flow&#45;&gt;chapter</title>
<path fill="none" stroke="#566270" d="M967.75,-627.91C967.75,-627.91 967.75,-585.06 967.75,-585.06"/>
<polygon fill="#566270" stroke="#566270" points="970.2,-585.06 967.75,-578.06 965.3,-585.06 970.2,-585.06"/>
<text text-anchor="middle" x="931.5" y="-600.8" font-family="DejaVu Sans" font-size="9.00">selects</text>
</g>
<!-- state -->
<g id="node7" class="node">
<title>state</title>
<path fill="white" stroke="#566270" d="M1192,-578C1192,-578 1050,-578 1050,-578 1044,-578 1038,-572 1038,-566 1038,-566 1038,-552 1038,-552 1038,-546 1044,-540 1050,-540 1050,-540 1192,-540 1192,-540 1198,-540 1204,-546 1204,-552 1204,-552 1204,-566 1204,-566 1204,-572 1198,-578 1192,-578"/>
<text text-anchor="middle" x="1121" y="-562.2" font-family="DejaVu Sans" font-size="11.00">StateMachine&lt;TState&gt;</text>
<text text-anchor="middle" x="1121" y="-550.2" font-family="DejaVu Sans" font-size="11.00">one transition mechanism</text>
</g>
<!-- flow&#45;&gt;state -->
<g id="edge5" class="edge">
<title>flow&#45;&gt;state</title>
<path fill="none" stroke="#566270" d="M1055.25,-627.91C1055.25,-627.91 1055.25,-585.06 1055.25,-585.06"/>
<polygon fill="#566270" stroke="#566270" points="1057.7,-585.06 1055.25,-578.06 1052.8,-585.06 1057.7,-585.06"/>
<text text-anchor="middle" x="1041" y="-600.8" font-family="DejaVu Sans" font-size="9.00">owns</text>
</g>
<!-- flow&#45;&gt;save -->
<g id="edge34" class="edge">
<title>flow&#45;&gt;save</title>
<path fill="none" stroke="#566270" d="M923.37,-647C833.5,-647 694.5,-647 694.5,-647 694.5,-647 694.5,-585.09 694.5,-585.09"/>
<polygon fill="#566270" stroke="#566270" points="696.95,-585.09 694.5,-578.09 692.05,-585.09 696.95,-585.09"/>
<text text-anchor="middle" x="777.5" y="-600.8" font-family="DejaVu Sans" font-size="9.00">checkpoint</text>
</g>
<!-- beats -->
<g id="node6" class="node">
<title>beats</title>
<path fill="white" stroke="#566270" d="M965,-462C965,-462 875,-462 875,-462 869,-462 863,-456 863,-450 863,-450 863,-436 863,-436 863,-430 869,-424 875,-424 875,-424 965,-424 965,-424 971,-424 977,-430 977,-436 977,-436 977,-450 977,-450 977,-456 971,-462 965,-462"/>
<text text-anchor="middle" x="920" y="-446.2" font-family="DejaVu Sans" font-size="11.00">StoryBeatBase</text>
<text text-anchor="middle" x="920" y="-434.2" font-family="DejaVu Sans" font-size="11.00">ordered beat list</text>
</g>
<!-- chapter&#45;&gt;beats -->
<g id="edge4" class="edge">
<title>chapter&#45;&gt;beats</title>
<path fill="none" stroke="#566270" d="M920,-539.84C920,-539.84 920,-469.18 920,-469.18"/>
<polygon fill="#566270" stroke="#566270" points="922.45,-469.18 920,-462.18 917.55,-469.18 922.45,-469.18"/>
<text text-anchor="middle" x="919" y="-512.8" font-family="DejaVu Sans" font-size="9.00">composes</text>
</g>
<!-- nav -->
<g id="node11" class="node">
<title>nav</title>
<path fill="white" stroke="#566270" d="M1495.5,-346C1495.5,-346 1306.5,-346 1306.5,-346 1300.5,-346 1294.5,-340 1294.5,-334 1294.5,-334 1294.5,-320 1294.5,-320 1294.5,-314 1300.5,-308 1306.5,-308 1306.5,-308 1495.5,-308 1495.5,-308 1501.5,-308 1507.5,-314 1507.5,-320 1507.5,-320 1507.5,-334 1507.5,-334 1507.5,-340 1501.5,-346 1495.5,-346"/>
<text text-anchor="middle" x="1401" y="-330.2" font-family="DejaVu Sans" font-size="11.00">NavigationService</text>
<text text-anchor="middle" x="1401" y="-318.2" font-family="DejaVu Sans" font-size="11.00">current room + passage transition</text>
</g>
<!-- beats&#45;&gt;nav -->
<g id="edge26" class="edge">
<title>beats&#45;&gt;nav</title>
<path fill="none" stroke="#6b4e9b" d="M977.34,-436C1084.18,-436 1303,-436 1303,-436 1303,-436 1303,-353.24 1303,-353.24"/>
<polygon fill="#6b4e9b" stroke="#6b4e9b" points="1305.45,-353.24 1303,-346.24 1300.55,-353.24 1305.45,-353.24"/>
<text text-anchor="middle" x="1339" y="-396.8" font-family="DejaVu Sans" font-size="9.00">typed commands</text>
</g>
<!-- beats&#45;&gt;registry -->
<g id="edge27" class="edge">
<title>beats&#45;&gt;registry</title>
<path fill="none" stroke="#6b4e9b" d="M862.99,-443C720.5,-443 360.25,-443 360.25,-443 360.25,-443 360.25,-353.16 360.25,-353.16"/>
<polygon fill="#6b4e9b" stroke="#6b4e9b" points="362.7,-353.16 360.25,-346.16 357.8,-353.16 362.7,-353.16"/>
<text text-anchor="middle" x="553" y="-396.8" font-family="DejaVu Sans" font-size="9.00">typed commands</text>
</g>
<!-- beats&#45;&gt;narrative -->
<g id="edge28" class="edge">
<title>beats&#45;&gt;narrative</title>
<path fill="none" stroke="#6b4e9b" d="M920,-423.94C920,-423.94 920,-149.36 920,-149.36"/>
<polygon fill="#6b4e9b" stroke="#6b4e9b" points="922.45,-149.36 920,-142.36 917.55,-149.36 922.45,-149.36"/>
<text text-anchor="middle" x="972" y="-280.8" font-family="DejaVu Sans" font-size="9.00">typed commands</text>
</g>
<!-- scheduler -->
<g id="node9" class="node">
<title>scheduler</title>
<path fill="white" stroke="#566270" d="M1986.5,-666C1986.5,-666 1843.5,-666 1843.5,-666 1837.5,-666 1831.5,-660 1831.5,-654 1831.5,-654 1831.5,-640 1831.5,-640 1831.5,-634 1837.5,-628 1843.5,-628 1843.5,-628 1986.5,-628 1986.5,-628 1992.5,-628 1998.5,-634 1998.5,-640 1998.5,-640 1998.5,-654 1998.5,-654 1998.5,-660 1992.5,-666 1986.5,-666"/>
<text text-anchor="middle" x="1915" y="-650.2" font-family="DejaVu Sans" font-size="11.00">Scheduler</text>
<text text-anchor="middle" x="1915" y="-638.2" font-family="DejaVu Sans" font-size="11.00">timed / conditional events</text>
</g>
<!-- clock&#45;&gt;scheduler -->
<g id="edge6" class="edge">
<title>clock&#45;&gt;scheduler</title>
<path fill="none" stroke="#566270" d="M1905,-743.84C1905,-743.84 1905,-673.18 1905,-673.18"/>
<polygon fill="#566270" stroke="#566270" points="1907.45,-673.18 1905,-666.18 1902.55,-673.18 1907.45,-673.18"/>
<text text-anchor="middle" x="1924" y="-716.8" font-family="DejaVu Sans" font-size="9.00">drives</text>
</g>
<!-- world&#45;&gt;nav -->
<g id="edge7" class="edge">
<title>world&#45;&gt;nav</title>
<path fill="none" stroke="#566270" d="M1401,-423.84C1401,-423.84 1401,-353.18 1401,-353.18"/>
<polygon fill="#566270" stroke="#566270" points="1403.45,-353.18 1401,-346.18 1398.55,-353.18 1403.45,-353.18"/>
</g>
<!-- roomview -->
<g id="node12" class="node">
<title>roomview</title>
<path fill="white" stroke="#566270" d="M1685.5,-258C1685.5,-258 1524.5,-258 1524.5,-258 1518.5,-258 1512.5,-252 1512.5,-246 1512.5,-246 1512.5,-232 1512.5,-232 1512.5,-226 1518.5,-220 1524.5,-220 1524.5,-220 1685.5,-220 1685.5,-220 1691.5,-220 1697.5,-226 1697.5,-232 1697.5,-232 1697.5,-246 1697.5,-246 1697.5,-252 1691.5,-258 1685.5,-258"/>
<text text-anchor="middle" x="1605" y="-242.2" font-family="DejaVu Sans" font-size="11.00">RoomViewService</text>
<text text-anchor="middle" x="1605" y="-230.2" font-family="DejaVu Sans" font-size="11.00">activates one RoomView root</text>
</g>
<!-- nav&#45;&gt;roomview -->
<g id="edge8" class="edge">
<title>nav&#45;&gt;roomview</title>
<path fill="none" stroke="#566270" d="M1496.75,-307.91C1496.75,-282.02 1496.75,-239 1496.75,-239 1496.75,-239 1505.26,-239 1505.26,-239"/>
<polygon fill="#566270" stroke="#566270" points="1505.26,-241.45 1512.26,-239 1505.26,-236.55 1505.26,-241.45"/>
</g>
<!-- passage -->
<g id="node14" class="node">
<title>passage</title>
<path fill="white" stroke="#566270" d="M1474,-258C1474,-258 1276,-258 1276,-258 1270,-258 1264,-252 1264,-246 1264,-246 1264,-232 1264,-232 1264,-226 1270,-220 1276,-220 1276,-220 1474,-220 1474,-220 1480,-220 1486,-226 1486,-232 1486,-232 1486,-246 1486,-246 1486,-252 1480,-258 1474,-258"/>
<text text-anchor="middle" x="1375" y="-242.2" font-family="DejaVu Sans" font-size="11.00">Passage</text>
<text text-anchor="middle" x="1375" y="-230.2" font-family="DejaVu Sans" font-size="11.00">source • target • approach • arrival</text>
</g>
<!-- nav&#45;&gt;passage -->
<g id="edge10" class="edge">
<title>nav&#45;&gt;passage</title>
<path fill="none" stroke="#566270" d="M1390.25,-307.91C1390.25,-307.91 1390.25,-265.06 1390.25,-265.06"/>
<polygon fill="#566270" stroke="#566270" points="1392.7,-265.06 1390.25,-258.06 1387.8,-265.06 1392.7,-265.06"/>
</g>
<!-- room -->
<g id="node13" class="node">
<title>room</title>
<path fill="white" stroke="#566270" d="M1685.5,-142C1685.5,-142 1476.5,-142 1476.5,-142 1470.5,-142 1464.5,-136 1464.5,-130 1464.5,-130 1464.5,-116 1464.5,-116 1464.5,-110 1470.5,-104 1476.5,-104 1476.5,-104 1685.5,-104 1685.5,-104 1691.5,-104 1697.5,-110 1697.5,-116 1697.5,-116 1697.5,-130 1697.5,-130 1697.5,-136 1691.5,-142 1685.5,-142"/>
<text text-anchor="middle" x="1581" y="-126.2" font-family="DejaVu Sans" font-size="11.00">RoomElementBase</text>
<text text-anchor="middle" x="1581" y="-114.2" font-family="DejaVu Sans" font-size="11.00">RoomView • RoomAnchor • Obstacles</text>
</g>
<!-- roomview&#45;&gt;room -->
<g id="edge9" class="edge">
<title>roomview&#45;&gt;room</title>
<path fill="none" stroke="#566270" d="M1635.83,-219.84C1635.83,-219.84 1635.83,-149.18 1635.83,-149.18"/>
<polygon fill="#566270" stroke="#566270" points="1638.28,-149.18 1635.83,-142.18 1633.38,-149.18 1638.28,-149.18"/>
</g>
<!-- roomview&#45;&gt;camera -->
<g id="edge31" class="edge">
<title>roomview&#45;&gt;camera</title>
<path fill="none" stroke="#566270" d="M1574.17,-219.69C1574.17,-202.81 1574.17,-181 1574.17,-181 1574.17,-181 1231,-181 1231,-181 1231,-181 1231,-149.31 1231,-149.31"/>
<polygon fill="#566270" stroke="#566270" points="1233.45,-149.31 1231,-142.31 1228.55,-149.31 1233.45,-149.31"/>
<text text-anchor="middle" x="1428.5" y="-192.8" font-family="DejaVu Sans" font-size="9.00">present room</text>
</g>
<!-- actor -->
<g id="node16" class="node">
<title>actor</title>
<path fill="white" stroke="#566270" d="M363,-258C363,-258 225,-258 225,-258 219,-258 213,-252 213,-246 213,-246 213,-232 213,-232 213,-226 219,-220 225,-220 225,-220 363,-220 363,-220 369,-220 375,-226 375,-232 375,-232 375,-246 375,-246 375,-252 369,-258 363,-258"/>
<text text-anchor="middle" x="294" y="-242.2" font-family="DejaVu Sans" font-size="11.00">ActorControllerBase</text>
<text text-anchor="middle" x="294" y="-230.2" font-family="DejaVu Sans" font-size="11.00">PlayerActor • GuestActor</text>
</g>
<!-- registry&#45;&gt;actor -->
<g id="edge11" class="edge">
<title>registry&#45;&gt;actor</title>
<path fill="none" stroke="#566270" d="M294,-307.91C294,-307.91 294,-265.06 294,-265.06"/>
<polygon fill="#566270" stroke="#566270" points="296.45,-265.06 294,-258.06 291.55,-265.06 296.45,-265.06"/>
</g>
<!-- motor -->
<g id="node17" class="node">
<title>motor</title>
<path fill="white" stroke="#566270" d="M162,-142C162,-142 28,-142 28,-142 22,-142 16,-136 16,-130 16,-130 16,-116 16,-116 16,-110 22,-104 28,-104 28,-104 162,-104 162,-104 168,-104 174,-110 174,-116 174,-116 174,-130 174,-130 174,-136 168,-142 162,-142"/>
<text text-anchor="middle" x="95" y="-126.2" font-family="DejaVu Sans" font-size="11.00">ActorMotorBase</text>
<text text-anchor="middle" x="95" y="-114.2" font-family="DejaVu Sans" font-size="11.00">one movement executor</text>
</g>
<!-- actor&#45;&gt;motor -->
<g id="edge12" class="edge">
<title>actor&#45;&gt;motor</title>
<path fill="none" stroke="#566270" d="M212.72,-239C183.22,-239 157,-239 157,-239 157,-239 157,-149.16 157,-149.16"/>
<polygon fill="#566270" stroke="#566270" points="159.45,-149.16 157,-142.16 154.55,-149.16 159.45,-149.16"/>
<text text-anchor="middle" x="180.5" y="-192.8" font-family="DejaVu Sans" font-size="9.00">commands</text>
</g>
<!-- presenter -->
<g id="node18" class="node">
<title>presenter</title>
<path fill="white" stroke="#566270" d="M382,-142C382,-142 212,-142 212,-142 206,-142 200,-136 200,-130 200,-130 200,-116 200,-116 200,-110 206,-104 212,-104 212,-104 382,-104 382,-104 388,-104 394,-110 394,-116 394,-116 394,-130 394,-130 394,-136 388,-142 382,-142"/>
<text text-anchor="middle" x="297" y="-126.2" font-family="DejaVu Sans" font-size="11.00">ActorPresenter</text>
<text text-anchor="middle" x="297" y="-114.2" font-family="DejaVu Sans" font-size="11.00">one transform/scale/sort writer</text>
</g>
<!-- actor&#45;&gt;presenter -->
<g id="edge13" class="edge">
<title>actor&#45;&gt;presenter</title>
<path fill="none" stroke="#566270" d="M294,-219.84C294,-219.84 294,-149.18 294,-149.18"/>
<polygon fill="#566270" stroke="#566270" points="296.45,-149.18 294,-142.18 291.55,-149.18 296.45,-149.18"/>
<text text-anchor="middle" x="319" y="-192.8" font-family="DejaVu Sans" font-size="9.00">composes</text>
</g>
<!-- target -->
<g id="node20" class="node">
<title>target</title>
<path fill="white" stroke="#566270" d="M1636,-666C1636,-666 1464,-666 1464,-666 1458,-666 1452,-660 1452,-654 1452,-654 1452,-640 1452,-640 1452,-634 1458,-628 1464,-628 1464,-628 1636,-628 1636,-628 1642,-628 1648,-634 1648,-640 1648,-640 1648,-654 1648,-654 1648,-660 1642,-666 1636,-666"/>
<text text-anchor="middle" x="1550" y="-650.2" font-family="DejaVu Sans" font-size="11.00">InteractionTargetBase</text>
<text text-anchor="middle" x="1550" y="-638.2" font-family="DejaVu Sans" font-size="11.00">passage • actor • story • clock</text>
</g>
<!-- input&#45;&gt;target -->
<g id="edge14" class="edge">
<title>input&#45;&gt;target</title>
<path fill="none" stroke="#566270" d="M1549,-743.84C1549,-743.84 1549,-673.18 1549,-673.18"/>
<polygon fill="#566270" stroke="#566270" points="1551.45,-673.18 1549,-666.18 1546.55,-673.18 1551.45,-673.18"/>
</g>
<!-- target&#45;&gt;flow -->
<g id="edge30" class="edge">
<title>target&#45;&gt;flow</title>
<path fill="none" stroke="#167c80" d="M1451.95,-647C1451.95,-647 1079.59,-647 1079.59,-647"/>
<polygon fill="#167c80" stroke="#167c80" points="1079.59,-644.55 1072.59,-647 1079.59,-649.45 1079.59,-644.55"/>
</g>
<!-- target&#45;&gt;nav -->
<g id="edge29" class="edge">
<title>target&#45;&gt;nav</title>
<path fill="none" stroke="#167c80" d="M1499,-627.94C1499,-627.94 1499,-353.36 1499,-353.36"/>
<polygon fill="#167c80" stroke="#167c80" points="1501.45,-353.36 1499,-346.36 1496.55,-353.36 1501.45,-353.36"/>
<text text-anchor="middle" x="1578" y="-512.8" font-family="DejaVu Sans" font-size="9.00">passage command</text>
</g>
<!-- narrative&#45;&gt;ui -->
<g id="edge32" class="edge">
<title>narrative&#45;&gt;ui</title>
<path fill="none" stroke="#566270" d="M949,-103.91C949,-103.91 949,-61.06 949,-61.06"/>
<polygon fill="#566270" stroke="#566270" points="951.45,-61.06 949,-54.06 946.55,-61.06 951.45,-61.06"/>
<text text-anchor="middle" x="970" y="-76.8" font-family="DejaVu Sans" font-size="9.00">subtitle state</text>
</g>
<!-- narrative&#45;&gt;audio -->
<g id="edge33" class="edge">
<title>narrative&#45;&gt;audio</title>
<path fill="none" stroke="#566270" d="M1046.06,-123C1058.45,-123 1066.75,-123 1066.75,-123 1066.75,-123 1066.75,-61.09 1066.75,-61.09"/>
<polygon fill="#566270" stroke="#566270" points="1069.2,-61.09 1066.75,-54.09 1064.3,-61.09 1069.2,-61.09"/>
<text text-anchor="middle" x="1102" y="-76.8" font-family="DejaVu Sans" font-size="9.00">voice</text>
</g>
</g>
</svg>
